<svg width="1200" height="675" viewBox="0 0 1200 675" xmlns="http://www.w3.org/2000/svg">
  <defs>
    <linearGradient id="bg" x1="0" y1="0" x2="1200" y2="675" gradientUnits="userSpaceOnUse">
      <stop offset="0" stop-color="#f0fdfa"/>
      <stop offset="0.55" stop-color="#ffffff"/>
      <stop offset="1" stop-color="#ccfbf1"/>
    </linearGradient>
    <linearGradient id="line" x1="0" y1="0" x2="1" y2="1">
      <stop offset="0" stop-color="#0d9488" stop-opacity="0.70"/>
      <stop offset="1" stop-color="#2dd4bf" stop-opacity="0.30"/>
    </linearGradient>
    <pattern id="grid" width="40" height="40" patternUnits="userSpaceOnUse">
      <path d="M40 0H0V40" fill="none" stroke="#0d9488" stroke-width="1" opacity="0.06"/>
    </pattern>
    <filter id="soft">
      <feGaussianBlur stdDeviation="7" result="b"/>
      <feMerge>
        <feMergeNode in="b"/>
        <feMergeNode in="SourceGraphic"/>
      </feMerge>
    </filter>
  </defs>
  <rect width="1200" height="675" fill="url(#bg)"/>
  <rect width="1200" height="675" fill="url(#grid)"/>
  <g opacity="0.6" fill="none" stroke="url(#line)" stroke-width="5" stroke-linecap="round" filter="url(#soft)">
    <path d="M190 500 C 320 430, 390 560, 520 490 S 720 360, 860 420 S 1020 560, 1060 420"/>
    <path d="M240 280 C 380 230, 450 330, 600 280 S 820 200, 980 240" stroke-width="4" opacity="0.85"/>
  </g>
  <g fill="#0d9488" opacity="0.22">
    <circle cx="520" cy="490" r="12"/>
    <circle cx="860" cy="420" r="9"/>
    <circle cx="980" cy="240" r="8"/>
  </g>
  <g font-family="Inter, -apple-system, BlinkMacSystemFont, 'Segoe UI', Roboto, sans-serif">
    <text x="40" y="72" font-size="14" fill="#0f766e" font-weight="800" letter-spacing="2" opacity="0.9">CASE STUDY</text>
    <text x="40" y="118" font-size="34" fill="#111827" font-weight="750">Assessment</text>
    <text x="40" y="148" font-size="14" fill="#6b7280" font-weight="500">Drop in: images/case-assessment.webp (or .png)</text>
  </g>
</svg>

