<svg width="1200" height="675" viewBox="0 0 1200 675" xmlns="http://www.w3.org/2000/svg">
  <defs>
    <linearGradient id="bg" x1="0" y1="0" x2="1200" y2="675" gradientUnits="userSpaceOnUse">
      <stop offset="0" stop-color="#f0fdfa"/>
      <stop offset="0.55" stop-color="#ffffff"/>
      <stop offset="1" stop-color="#ccfbf1"/>
    </linearGradient>
    <linearGradient id="line" x1="0" y1="0" x2="1" y2="1">
      <stop offset="0" stop-color="#0d9488" stop-opacity="0.70"/>
      <stop offset="1" stop-color="#2dd4bf" stop-opacity="0.28"/>
    </linearGradient>
    <pattern id="dots" width="18" height="18" patternUnits="userSpaceOnUse">
      <circle cx="2" cy="2" r="1.2" fill="#0d9488" opacity="0.09"/>
    </pattern>
    <filter id="soft">
      <feGaussianBlur stdDeviation="6" result="b"/>
      <feMerge>
        <feMergeNode in="b"/>
        <feMergeNode in="SourceGraphic"/>
      </feMerge>
    </filter>
  </defs>
  <rect width="1200" height="675" fill="url(#bg)"/>
  <rect width="1200" height="675" fill="url(#dots)"/>
  <g opacity="0.55" fill="none" stroke="url(#line)" stroke-width="6" stroke-linecap="round" stroke-linejoin="round" filter="url(#soft)">
    <path d="M210 520 C 340 420, 430 590, 560 500 S 760 320, 920 380 S 1040 520, 1060 420"/>
    <path d="M250 240 C 420 140, 520 310, 700 210 S 920 120, 1040 160" stroke-width="4" opacity="0.85"/>
  </g>
  <g fill="#0d9488" opacity="0.22">
    <circle cx="560" cy="500" r="12"/>
    <circle cx="920" cy="380" r="9"/>
    <circle cx="700" cy="210" r="9"/>
  </g>
  <g font-family="Inter, -apple-system, BlinkMacSystemFont, 'Segoe UI', Roboto, sans-serif">
    <text x="40" y="72" font-size="14" fill="#0f766e" font-weight="800" letter-spacing="2" opacity="0.9">CASE STUDY</text>
    <text x="40" y="118" font-size="34" fill="#111827" font-weight="750">Bispecific</text>
    <text x="40" y="148" font-size="14" fill="#6b7280" font-weight="500">Drop in: images/case-bispecific.webp (or .jpg)</text>
  </g>
</svg>
